General
Complete name                    : The Da Vinci Code 2006 ( in hindi Dubbed )VTS_05_1.VOB
Format                           : MPEG-PS
File size                        : 712 MiB
Duration                         : 2h 15mn
Overall bit rate                 : 734 Kbps

Video
ID                               : 224 (0xE0)
Format                           : MPEG Video
Format version                   : Version 2
Format profile                   : Main@Main
Format settings, Matrix          : Default
Duration                         : 2h 15mn
Bit rate mode                    : Variable
Bit rate                         : 481 Kbps
Nominal bit rate                 : 750 Kbps
Width                            : 352 pixels
Height                           : 288 pixels
Display aspect ratio             : 4/3
Frame rate                       : 25.000 fps
Standard                         : PAL
Colorimetry                      : 4:2:0
Scan type                        : Progressive
Bits/(Pixel*Frame)               : 0.190
Stream size                      : 467 MiB (66%)

Audio
ID                               : 192 (0xC0)
Format                           : MPEG Audio
Format version                   : Version 1
Format profile                   : Layer 2
Duration                         : 2h 15mn
Bit rate mode                    : Constant
Bit rate                         : 224 Kbps
Channel(s)                       : 2 channels
Sampling rate                    : 48.0 KHz
Resolution                       : 16 bits
Video delay                      : -168ms
Stream size                      : 217 MiB (31%)

Menu
Format                           : DVD-Video

Plays very well in VLC medial player

